Coordinates
version=1
nRows=12
nColumns=46
inDegrees=yes

Units are S.I. units (second, meters, Newtons, ...)
Angles are in degrees.

endheader
time	pelvis_tilt	pelvis_list	pelvis_rotation	pelvis_tx	pelvis_ty	pelvis_tz	bb_angle	bb_tx	bb_ty	bb_tz	hip_flexion_r	hip_adduction_r	hip_rotation_r	knee_angle_r	knee_angle_r_beta	ankle_angle_r	subtalar_angle_r	mtp_angle_r	crank_angle_r	hip_flexion_l	hip_adduction_l	hip_rotation_l	knee_angle_l	knee_angle_l_beta	ankle_angle_l	subtalar_angle_l	mtp_angle_l	crank_angle_l	lumbar_extension	lumbar_bending	lumbar_rotation	arm_flex_r	arm_add_r	arm_rot_r	elbow_flex_r	pro_sup_r	wrist_flex_r	wrist_dev_r	arm_flex_l	arm_add_l	arm_rot_l	elbow_flex_l	pro_sup_l	wrist_flex_l	wrist_dev_l
      7.50000000	    -27.86105618	     -5.54915465	    -10.16591507	      0.46188241	      1.15490687	     -0.22649324	      0.00000000	      0.50000000	      0.00000000	      0.25000000	     72.62534640	      9.65418272	      4.65617111	     98.48954525	      1.71896684	     18.55299564	     -6.03955397	      0.00000000	      0.00000000	     20.18972967	    -14.03796023	    -12.78328717	     19.23369168	      0.33569125	    -21.10450490	      5.61069197	      0.00000000	      0.00000000	    -55.28458988	      1.76063820	     12.44131391	     57.75267610	    -47.83507074	     57.87847181	     92.70538145	     62.11423636	      0.00000000	      0.00000000	     35.69063173	    -24.84239809	     19.35614901	     80.16173196	     51.53223269	      0.00000000	      0.00000000
      7.50500000	    -28.00785874	     -4.98639971	    -10.13406116	      0.46167879	      1.15667108	     -0.22677359	      0.00000000	      0.50000000	      0.00000000	      0.25000000	     72.18215269	      9.20346801	      4.81733857	     96.48108447	      1.68391259	     19.62590793	     -6.59091031	      0.00000000	      0.00000000	     21.06407463	    -13.54742736	    -12.02804938	     21.44648846	      0.37431184	    -20.71848200	      4.43903918	      0.00000000	      0.00000000	    -55.54430338	      1.50383768	     12.31019608	     57.91925014	    -48.45609279	     57.70603673	     93.48386197	     62.15303108	      0.00000000	      0.00000000	     35.86334999	    -24.38415991	     19.03213183	     80.35213431	     51.55730012	      0.00000000	      0.00000000
      7.51000000	    -27.91224688	     -4.22611381	    -10.25312649	      0.46173795	      1.15875120	     -0.22657284	      0.00000000	      0.50000000	      0.00000000	      0.25000000	     71.41185867	      8.86963705	      5.24379014	     94.40281777	      1.64763999	     20.66467790	     -7.39707651	      0.00000000	      0.00000000	     21.69536356	    -12.91058315	    -11.51705386	     23.68971566	      0.41346354	    -20.57401829	      3.51214067	      0.00000000	      0.00000000	    -55.92969014	      0.87866506	     11.98117352	     58.02581023	    -48.69885481	     57.48465955	     93.78456431	     62.11217849	      0.00000000	      0.00000000	     36.14777462	    -24.07421579	     18.87737523	     80.47944079	     51.55477098	      0.00000000	      0.00000000
      7.51500000	    -28.13822624	     -3.74413567	    -10.10166283	      0.46132562	      1.16038454	     -0.22688249	      0.00000000	      0.50000000	      0.00000000	      0.25000000	     70.93003563	      8.42117883	      5.25770339	     92.11558328	      1.60772022	     20.85849761	     -8.63617780	      0.00000000	      0.00000000	     23.03791193	    -12.45974512	    -10.21677843	     26.41854106	      0.46109053	    -20.25658319	      2.16491312	      0.00000000	      0.00000000	    -56.16988188	      0.69417898	     12.00197892	     58.02407356	    -49.86793483	     57.27072495	     95.19709574	     62.15773891	      0.00000000	      0.00000000	     36.90677856	    -26.18833906	     21.39296708	     81.47144965	     52.02090202	      0.00000000	      0.00000000
      7.52000000	    -27.91794013	     -2.97867017	    -10.18507136	      0.46149436	      1.16259779	     -0.22650815	      0.00000000	      0.50000000	      0.00000000	      0.25000000	     69.90579811	      8.06472911	      5.72666094	     89.79930781	      1.56729359	     21.36170233	     -9.14775011	      0.00000000	      0.00000000	     23.78262059	    -11.79087074	     -9.61562196	     28.93077400	      0.50493726	    -20.28644607	      1.27593239	      0.00000000	      0.00000000	    -56.66040899	     -0.01524294	     11.56523994	     58.12460069	    -49.99009985	     57.04408783	     95.35536069	     62.12614330	      0.00000000	      0.00000000	     37.29890385	    -25.98496310	     21.40650530	     81.50287509	     52.02704049	      0.00000000	      0.00000000
      7.52500000	    -28.05586595	     -2.48294912	    -10.03083387	      0.46114521	      1.16425816	     -0.22643748	      0.00000000	      0.50000000	      0.00000000	      0.25000000	     69.23941003	      7.65648470	      5.86095266	     87.35153614	      1.52457191	     21.23082634	     -9.88406897	      0.00000000	      0.00000000	     25.20751649	    -11.28057092	     -8.33192042	     31.75961485	      0.55430985	    -20.49115319	     -0.09536296	      0.00000000	      0.00000000	    -56.85358673	     -0.26729952	     11.38481890	     58.06981701	    -50.42812804	     56.67006114	     95.90274258	     62.09897042	      0.00000000	      0.00000000	     37.56252102	    -25.66523328	     21.42666834	     81.58098639	     52.05207375	      0.00000000	      0.00000000
      7.53000000	    -27.85646834	     -1.68444809	    -10.08427697	      0.46126529	      1.16632781	     -0.22580570	      0.00000000	      0.50000000	      0.00000000	      0.25000000	     68.20058483	      7.26311771	      6.51551928	     84.91535761	      1.48205258	     21.11190163	    -10.11041250	      0.00000000	      0.00000000	     26.22174267	    -10.63084904	     -7.76324920	     34.47353154	      0.60167663	    -20.89611509	     -0.59285613	      0.00000000	      0.00000000	    -57.30729033	     -1.02898884	     10.87686484	     58.04835753	    -50.58460438	     56.43281293	     96.09768621	     62.07073821	      0.00000000	      0.00000000	     37.97330576	    -25.43782559	     21.35308237	     81.64925733	     52.05436924	      0.00000000	      0.00000000
      7.53500000	    -27.83006827	     -1.11536398	    -10.05039891	      0.46094830	      1.16797532	     -0.22514424	      0.00000000	      0.50000000	      0.00000000	      0.25000000	     67.32347147	      6.88789421	      6.91319747	     82.41108963	      1.43834485	     20.59729031	    -10.33344548	      0.00000000	      0.00000000	     27.53326511	    -10.05507954	     -6.79795796	     37.22752965	      0.64974296	    -21.55028045	     -1.42432799	      0.00000000	      0.00000000	    -57.60029533	     -1.57484158	     10.53673182	     57.95326202	    -50.70742422	     56.13832136	     96.36353382	     62.03902882	      0.00000000	      0.00000000	     38.34770934	    -25.27643320	     21.33508429	     81.72923855	     52.06623163	      0.00000000	      0.00000000
      7.54000000	    -27.83189170	     -0.48478142	     -9.99326972	      0.46077780	      1.16941119	     -0.22483885	      0.00000000	      0.50000000	      0.00000000	      0.25000000	     66.48018064	      6.41886602	      7.45677374	     79.93263458	      1.39508765	     19.88855137	    -10.34102817	      0.00000000	      0.00000000	     28.85539699	     -9.24520932	     -5.69194265	     39.87960928	      0.69603049	    -22.31156956	     -2.79272738	      0.00000000	      0.00000000	    -57.74606021	     -2.11301846	     10.13511020	     57.70871717	    -50.87846988	     55.76366259	     96.61253306	     61.98814501	      0.00000000	      0.00000000	     38.62383265	    -25.08294429	     21.41305880	     81.77876683	     52.08606288	      0.00000000	      0.00000000
      7.54500000	    -27.60412382	      0.19901673	    -10.04227311	      0.46082679	      1.17098412	     -0.22425702	      0.00000000	      0.50000000	      0.00000000	      0.25000000	     65.40217965	      5.96528886	      8.09755854	     77.48790776	      1.35241912	     19.06867690	    -10.02557752	      0.00000000	      0.00000000	     29.92902786	     -8.48349403	     -5.05767587	     42.55113372	      0.74265738	    -22.92604974	     -3.70410046	      0.00000000	      0.00000000	    -58.14940595	     -2.84710994	      9.56948143	     57.54177374	    -50.92090051	     55.47897085	     96.70859874	     61.94180989	      0.00000000	      0.00000000	     39.06322987	    -24.93788069	     21.45174831	     81.81060783	     52.09306395	      0.00000000	      0.00000000
      7.55000000	    -27.49384107	      0.84874172	     -9.97281192	      0.46076436	      1.17214574	     -0.22370955	      0.00000000	      0.50000000	      0.00000000	      0.25000000	     64.43667509	      5.42336117	      8.62061910	     75.08000350	      1.31039326	     18.04406908	     -9.89697273	      0.00000000	      0.00000000	     31.19980941	     -7.68197851	     -4.28735056	     45.25242614	      0.78980383	    -23.61479951	     -4.86100957	      0.00000000	      0.00000000	    -58.34802916	     -3.45926750	      9.05565247	     57.16406142	    -50.91542274	     54.97763321	     96.82724002	     61.85880815	      0.00000000	      0.00000000	     39.44351164	    -24.85479394	     21.59494135	     81.74862743	     52.10072998	      0.00000000	      0.00000000
      7.55500000	    -27.16759049	      1.58533276	    -10.02635528	      0.46090166	      1.17347378	     -0.22305525	      0.00000000	      0.50000000	      0.00000000	      0.25000000	     63.22935098	      4.88013560	      9.32136079	     72.69438879	      1.26875643	     16.95548606	     -9.49971844	      0.00000000	      0.00000000	     32.15483869	     -6.83790215	     -3.83913322	     47.85544890	      0.83523515	    -23.96096542	     -5.46585361	      0.00000000	      0.00000000	    -58.74413877	     -4.29171278	      8.41601527	     56.87368172	    -50.89515528	     54.72225395	     96.81723409	     61.80843305	      0.00000000	      0.00000000	     39.88187776	    -24.73632407	     21.67845206	     81.72907393	     52.10381324	      0.00000000	      0.00000000
